<?xml version="1.0" encoding="UTF-8" standalone="no"?>
<!-- Created with Inkscape (http://www.inkscape.org/) -->

<svg
   xmlns:dc="http://purl.org/dc/elements/1.1/"
   xmlns:cc="http://creativecommons.org/ns#"
   xmlns:rdf="http://www.w3.org/1999/02/22-rdf-syntax-ns#"
   xmlns:svg="http://www.w3.org/2000/svg"
   xmlns="http://www.w3.org/2000/svg"
   xmlns:sodipodi="http://sodipodi.sourceforge.net/DTD/sodipodi-0.dtd"
   xmlns:inkscape="http://www.inkscape.org/namespaces/inkscape"
   width="20"
   height="20"
   id="svg2"
   version="1.1"
   inkscape:version="0.48.2 r9819"
   sodipodi:docname="New document 1">
  <defs
     id="defs4" />
  <sodipodi:namedview
     id="base"
     pagecolor="#ffffff"
     bordercolor="#666666"
     borderopacity="1.0"
     inkscape:pageopacity="0.0"
     inkscape:pageshadow="2"
     inkscape:zoom="15.839192"
     inkscape:cx="7.391666"
     inkscape:cy="10.09147"
     inkscape:document-units="px"
     inkscape:current-layer="layer1"
     showgrid="false"
     inkscape:window-width="798"
     inkscape:window-height="578"
     inkscape:window-x="1480"
     inkscape:window-y="324"
     inkscape:window-maximized="0" />
  <metadata
     id="metadata7">
    <rdf:RDF>
      <cc:Work
         rdf:about="">
        <dc:format>image/svg+xml</dc:format>
        <dc:type
           rdf:resource="http://purl.org/dc/dcmitype/StillImage" />
        <dc:title></dc:title>
      </cc:Work>
    </rdf:RDF>
  </metadata>
  <g
     inkscape:label="Layer 1"
     inkscape:groupmode="layer"
     id="layer1"
     transform="translate(0,-1032.3622)">
    <g
       transform="matrix(3.9038123,0,0,3.913678,-10.069941,1007.9063)"
       style="font-size:10px;font-style:normal;font-weight:normal;line-height:125%;letter-spacing:0px;word-spacing:0px;fill:#aeae00;fill-opacity:1;stroke:#666666;font-family:Sans;stroke-opacity:1;stroke-width:0.12791838999999999;stroke-miterlimit:4;stroke-dasharray:none"
       id="flowRoot2985">
      <path
         d="m 2.6435547,9.6047582 0,-1.0009766 C 2.988606,8.2131608 3.4410795,8.0178484 4.0009766,8.0178441 c 0.1953105,4.3e-6 0.4003884,0.028487 0.6152343,0.085449 0.2148412,0.05697 0.5208305,0.1700886 0.9179688,0.3393554 0.2246058,0.094405 0.3930627,0.1562538 0.5053711,0.1855469 0.1123007,0.029301 0.2254191,0.043949 0.3393554,0.043945 0.2115842,3.7e-6 0.4304968,-0.063473 0.6567383,-0.1904297 0.226232,-0.1269491 0.4272409,-0.2864542 0.6030274,-0.4785156 l 0,1.0351563 C 7.4303333,9.2336675 7.2195588,9.375269 7.0063477,9.4631566 6.7931269,9.55105 6.5530556,9.5949953 6.2861328,9.5949926 6.0908164,9.5949953 5.9044559,9.5722089 5.7270508,9.5266332 5.5496386,9.4810631 5.2680634,9.3720138 4.8823242,9.1994848 4.4965798,9.026962 4.1751283,8.9406991 3.9179688,8.9406957 3.7096339,8.9406991 3.5135078,8.9854582 3.3295898,9.074973 3.1456696,9.1644944 2.9169915,9.3410893 2.6435547,9.6047582 z"
         style="fill:#aeae00;stroke:#666666;stroke-opacity:1;stroke-width:0.12791838999999999;stroke-miterlimit:4;stroke-dasharray:none;fill-opacity:1"
         id="path2994" />
    </g>
  </g>
</svg>
