<?xml version="1.0" encoding="UTF-8" standalone="no"?>
<!-- Created with Inkscape (http://www.inkscape.org/) -->

<svg
   xmlns:dc="http://purl.org/dc/elements/1.1/"
   xmlns:cc="http://creativecommons.org/ns#"
   xmlns:rdf="http://www.w3.org/1999/02/22-rdf-syntax-ns#"
   xmlns:svg="http://www.w3.org/2000/svg"
   xmlns="http://www.w3.org/2000/svg"
   xmlns:sodipodi="http://sodipodi.sourceforge.net/DTD/sodipodi-0.dtd"
   xmlns:inkscape="http://www.inkscape.org/namespaces/inkscape"
   width="20"
   height="20"
   id="svg3817"
   version="1.1"
   inkscape:version="0.48.4 r9939"
   sodipodi:docname="seat_greenbag_icon.svg"
   inkscape:export-filename="C:\Users\jlong\Dropbox\WebTD_icons\seat_greenbag_icon.png"
   inkscape:export-xdpi="90"
   inkscape:export-ydpi="90">
  <defs
     id="defs3819" />
  <sodipodi:namedview
     id="base"
     pagecolor="#ffffff"
     bordercolor="#666666"
     borderopacity="1.0"
     inkscape:pageopacity="0.0"
     inkscape:pageshadow="2"
     inkscape:zoom="8"
     inkscape:cx="8.124031"
     inkscape:cy="6.1172764"
     inkscape:current-layer="layer1"
     showgrid="true"
     inkscape:grid-bbox="true"
     inkscape:document-units="px"
     inkscape:window-width="708"
     inkscape:window-height="504"
     inkscape:window-x="626"
     inkscape:window-y="226"
     inkscape:window-maximized="0" />
  <metadata
     id="metadata3822">
    <rdf:RDF>
      <cc:Work
         rdf:about="">
        <dc:format>image/svg+xml</dc:format>
        <dc:type
           rdf:resource="http://purl.org/dc/dcmitype/StillImage" />
        <dc:title></dc:title>
      </cc:Work>
    </rdf:RDF>
  </metadata>
  <g
     id="layer1"
     inkscape:label="Layer 1"
     inkscape:groupmode="layer"
     transform="translate(0,4)">
    <path
       style="fill:#fbfab2;stroke:#000000;stroke-width:0.80000000000000004;stroke-linecap:butt;stroke-linejoin:miter;stroke-miterlimit:4;stroke-opacity:1;stroke-dasharray:none;fill-opacity:1"
       d="m 1.1576209,-3.119761 c 0,0 1.5916256,7.6540366 1.1954632,11.4373743 C 2.1149755,10.591545 0.8813188,15.11867 0.8813188,15.11867 c 0,0 4.7366592,-0.557031 8.6925724,-0.729265 1.8429918,-0.08023 9.0739018,0.621944 9.0739018,0.621944 0,0 -0.383857,-4.322184 -0.522071,-7.8380774 -0.140935,-3.5851467 0.992959,-10.0438866 0.992959,-10.0438866 0,0 -5.164967,1.0370072 -7.925426,1.0208034 C 6.9570204,-1.874678 1.1576209,-3.119761 1.1576209,-3.119761 z"
       id="path3825"
       inkscape:connector-curvature="0"
       sodipodi:nodetypes="cscscscsc" />
    <path
       style="fill:none;stroke:#000000;stroke-width:0.5;stroke-linecap:butt;stroke-linejoin:miter;stroke-miterlimit:4;stroke-opacity:1;stroke-dasharray:none"
       d="m 4.5040344,9.6060682 c -0.092713,0.8563868 0.020991,1.5636198 0.3551937,2.1555028 0.4185989,0.741347 0.8655245,0.855546 1.5896262,0.851024 0.1819906,1.14e-4 0.3639812,-7.73e-4 0.5459715,-2.02e-4"
       id="path3832"
       inkscape:connector-curvature="0"
       sodipodi:nodetypes="cscc" />
    <path
       style="fill:none;stroke:#000000;stroke-width:0.5;stroke-linecap:butt;stroke-linejoin:miter;stroke-miterlimit:4;stroke-opacity:1;stroke-dasharray:none"
       d="m 12.577621,0.24359623 c 1.149823,-0.14171122 1.77723,-0.26130038 2.648854,0.34913452 0.813769,0.56991515 0.78208,1.46720175 0.666005,2.36023345 -3.59e-4,0.2032929 -0.20632,0.2723453 -0.222823,0.4687185"
       id="path3837"
       inkscape:connector-curvature="0"
       sodipodi:nodetypes="cscc" />
  </g>
</svg>
